<?xml version="1.0" encoding="utf-8"?>
<!-- Generator: Adobe Illustrator 22.1.0, SVG Export Plug-In . SVG Version: 6.00 Build 0)  -->
<svg version="1.1" id="Capa_1" xmlns="http://www.w3.org/2000/svg" xmlns:xlink="http://www.w3.org/1999/xlink" x="0px" y="0px"
	 viewBox="0 0 512 512" style="enable-background:new 0 0 512 512;" xml:space="preserve">
<style type="text/css">
	.st0{fill:#00B400;}
</style>
<g>
	<g>
		<path class="st0" d="M368.4,463.1c-3-4.6-9.2-5.9-13.8-2.9c-32,20.8-69.2,31.8-107.5,31.8c-108.8,0-197.3-88.5-197.3-197.3
			c0-39.5,11.6-77.6,33.6-110.2c3.1-4.6,1.9-10.8-2.7-13.9c-4.6-3.1-10.8-1.9-13.9,2.7c-24.2,35.9-37.1,77.9-37.1,121.4
			c0,58,22.6,112.6,63.6,153.6S189,512,247.1,512c42.2,0,83.2-12.1,118.4-35.1C370.1,473.9,371.4,467.7,368.4,463.1z"/>
	</g>
</g>
<g>
	<g>
		<path class="st0" d="M402,432.7c-3.9-3.9-10.3-3.8-14.1,0.1l-0.3,0.3c-3.9,3.9-3.9,10.3,0.1,14.1c2,1.9,4.5,2.9,7,2.9
			c2.6,0,5.1-1,7.1-3l0.4-0.4C406,442.9,406,436.6,402,432.7z"/>
	</g>
</g>
<g>
	<g>
		<path class="st0" d="M442.5,163.9c2,2,4.5,2.9,7.1,2.9c2.6,0,5.1-1,7.1-2.9l16.7-16.7c11.9-11.9,11.9-31.2,0-43.1l-35.7-35.7
			c-5.8-5.8-13.4-8.9-21.5-8.9c-8.1,0-15.8,3.2-21.5,8.9l-16.7,16.7c-1.9,1.9-2.9,4.4-2.9,7.1s1.1,5.2,2.9,7.1l4.7,4.7l-12,12
			c-25.4-17.6-54.1-29.5-84.6-35V64h22c5.5,0,10-4.5,10-10V10c0-5.5-4.5-10-10-10h-122c-5.5,0-10,4.5-10,10v44c0,5.5,4.5,10,10,10
			h22v17c-28.6,5.2-55.9,16.1-80.5,32.3c-4.6,3-5.9,9.2-2.8,13.9c3,4.6,9.2,5.9,13.9,2.8c32.2-21.2,69.7-32.5,108.5-32.5
			c108.8,0,197.3,88.5,197.3,197.3c0,36.9-10.2,72.9-29.6,104c-2.9,4.7-1.5,10.9,3.2,13.8c1.6,1,3.5,1.5,5.3,1.5
			c3.3,0,6.6-1.7,8.5-4.7c21.4-34.3,32.6-74,32.6-114.6c0-44.8-13.5-87.5-38.5-123.6l12-12L442.5,163.9z M266.1,78.3
			c-6.3-0.5-12.6-0.8-19-0.8c-6.4,0-12.7,0.3-19,0.8V64h38L266.1,78.3L266.1,78.3z M218.1,44h-22V20h102v24h-22H218.1z M413.5,155.1
			c-4.1-4.8-8.3-9.5-12.8-14c-4.5-4.5-9.2-8.8-14-12.8l10.1-10.1l26.9,26.9L413.5,155.1z M403.8,96.9
			C403.8,96.9,403.8,96.9,403.8,96.9l-4.7-4.7l9.6-9.6c2-2,4.6-3.1,7.4-3.1c2.8,0,5.4,1.1,7.4,3.1l35.7,35.7
			c4.1,4.1,4.1,10.7,0,14.8l-9.6,9.6l-4.7-4.7c0,0,0,0,0,0L403.8,96.9z"/>
	</g>
</g>
<g>
	<g>
		<path class="st0" d="M247.1,153c-5.5,0-10,4.5-10,10v22c0,5.5,4.5,10,10,10c5.5,0,10-4.5,10-10v-22
			C257.1,157.5,252.6,153,247.1,153z"/>
	</g>
</g>
<g>
	<g>
		<path class="st0" d="M347.3,194.5c-1.9-1.9-4.4-2.9-7.1-2.9c-2.6,0-5.2,1.1-7.1,2.9c-1.9,1.9-2.9,4.4-2.9,7.1
			c0,2.6,1.1,5.2,2.9,7.1c1.9,1.9,4.4,2.9,7.1,2.9c2.6,0,5.2-1.1,7.1-2.9c1.9-1.9,2.9-4.4,2.9-7.1S349.1,196.4,347.3,194.5z"/>
	</g>
</g>
<g>
	<g>
		<path class="st0" d="M378.8,284.7h-22c-5.5,0-10,4.5-10,10s4.5,10,10,10h22c5.5,0,10-4.5,10-10S384.3,284.7,378.8,284.7z"/>
	</g>
</g>
<g>
	<g>
		<path class="st0" d="M347.3,380.8c-1.9-1.9-4.4-2.9-7.1-2.9c-2.6,0-5.2,1.1-7.1,2.9c-1.9,1.9-2.9,4.4-2.9,7.1
			c0,2.6,1.1,5.2,2.9,7.1c1.9,1.9,4.4,2.9,7.1,2.9c2.6,0,5.2-1.1,7.1-2.9c1.9-1.9,2.9-4.4,2.9-7.1
			C350.2,385.3,349.1,382.7,347.3,380.8z"/>
	</g>
</g>
<g>
	<g>
		<path class="st0" d="M247.1,394.5c-5.5,0-10,4.5-10,10v22c0,5.5,4.5,10,10,10s10-4.5,10-10v-22C257.1,399,252.6,394.5,247.1,394.5
			z"/>
	</g>
</g>
<g>
	<g>
		<path class="st0" d="M161,380.8c-1.9-1.9-4.4-2.9-7.1-2.9s-5.2,1.1-7.1,2.9c-1.9,1.9-2.9,4.4-2.9,7.1c0,2.6,1.1,5.2,2.9,7.1
			c1.9,1.9,4.4,2.9,7.1,2.9s5.2-1.1,7.1-2.9c1.9-1.9,2.9-4.4,2.9-7.1C163.9,385.3,162.8,382.7,161,380.8z"/>
	</g>
</g>
<g>
	<g>
		<path class="st0" d="M137.3,284.7h-22c-5.5,0-10,4.5-10,10s4.5,10,10,10h22c5.5,0,10-4.5,10-10
			C147.3,289.2,142.8,284.7,137.3,284.7z"/>
	</g>
</g>
<g>
	<g>
		<path class="st0" d="M161,194.5c-1.9-1.9-4.4-2.9-7.1-2.9s-5.2,1.1-7.1,2.9c-1.9,1.9-2.9,4.4-2.9,7.1s1.1,5.2,2.9,7.1
			c1.9,1.9,4.4,2.9,7.1,2.9s5.2-1.1,7.1-2.9c1.9-1.9,2.9-4.4,2.9-7.1S162.8,196.4,161,194.5z"/>
	</g>
</g>
<g>
	<g>
		<path class="st0" d="M325.1,216.7c-3.3-3.3-8.3-3.9-12.2-1.5l-82.5,50c-0.9,0.5-2.1,1.2-3,1.9c-8.6,6.2-14.3,16.3-14.3,27.7
			c0,18.8,15.3,34,34,34c11.4,0,21.4-5.6,27.6-14.2c0.7-0.9,1.4-2.1,2-3.1l50-82.5C329,225,328.4,219.9,325.1,216.7z M259.4,301.3
			l-0.8,1.4c-2.5,3.7-6.8,6.1-11.5,6.1c-7.7,0-14-6.3-14-14c0-4.8,2.4-9,6.1-11.5l1.4-0.8c2-1,4.2-1.6,6.5-1.6c7.7,0,14,6.3,14,14
			C261.1,297.1,260.5,299.3,259.4,301.3z M275,275.5c-2.4-3.4-5.3-6.4-8.7-8.7l22.1-13.4L275,275.5z"/>
	</g>
</g>
<g>
	<g>
		<path class="st0" d="M247.1,121.5c-95.5,0-173.2,77.7-173.2,173.2S151.5,468,247.1,468s173.2-77.7,173.2-173.2
			S342.6,121.5,247.1,121.5z M247.1,448c-84.5,0-153.2-68.7-153.2-153.2s68.7-153.2,153.2-153.2c84.5,0,153.2,68.7,153.2,153.2
			S331.5,448,247.1,448z"/>
	</g>
</g>
<g>
	<g>
		<path class="st0" d="M108.2,140.5c-1.9-1.9-4.4-2.9-7.1-2.9s-5.2,1.1-7.1,2.9c-1.9,1.9-2.9,4.4-2.9,7.1c0,2.6,1.1,5.2,2.9,7.1
			c1.9,1.9,4.4,2.9,7.1,2.9s5.2-1.1,7.1-2.9c1.9-1.9,2.9-4.4,2.9-7.1C111.1,144.9,110,142.4,108.2,140.5z"/>
	</g>
</g>
</svg>
