<svg height="512pt" viewBox="-56 0 512 512.001" width="512pt" xmlns="http://www.w3.org/2000/svg"><path d="m391.480469 214.019531c-2.492188-2.121093-5.367188-3.660156-8.4375-4.582031l-16.847657-146.019531c-4.171874-36.152344-34.761718-63.417969-71.15625-63.417969h-190.300781c-36.398437 0-66.988281 27.265625-71.160156 63.417969l-16.847656 146.023437c-9.714844 2.988282-16.730469 12.523438-16.730469 23.371094v119.382812c0 26.664063 16.5 49.53125 39.816406 58.976563l-7.726562 92.707031c-.171875 2.089844.535156 4.15625 1.957031 5.699219 1.417969 1.542969 3.421875 2.421875 5.519531 2.421875h16.03125c3.441406 0 6.441406-2.339844 7.277344-5.679688l14.609375-58.449218h244.804687l14.613282 58.449218c.835937 3.339844 3.835937 5.679688 7.277344 5.679688h16.03125c2.097656 0 4.097656-.878906 5.519531-2.421875 1.417969-1.542969 2.128906-3.609375 1.953125-5.699219l-7.722656-92.707031c23.316406-9.441406 39.816406-32.3125 39.816406-58.976563v-120.242187c-.003906-6.914063-3.027344-13.449219-8.296875-17.933594zm-343-148.882812c3.296875-28.582031 27.484375-50.136719 56.257812-50.136719h190.300781c28.773438 0 52.957032 21.554688 56.257813 50.136719l16.703125 144.789062c-8.957031 3.453125-15.289062 12.582031-15.289062 22.886719v60.472656c-4.8125-2.980468-10.484376-4.703125-16.546876-4.703125h-.515624v-44.085937c0-18.023438-1.050782-36.242188-3.117188-54.152344l-9.171875-79.496094c-.476563-4.113281-4.191406-7.066406-8.3125-6.589844-4.113281.472657-7.0625 4.195313-6.589844 8.308594l9.171875 79.496094c2.003906 17.34375 3.015625 34.984375 3.015625 52.433594v44.082031h-200.921875c-4.140625 0-7.5 3.359375-7.5 7.5 0 4.144531 3.359375 7.5 7.5 7.5h216.4375c9.125 0 16.550782 7.425781 16.550782 16.550781v32.0625c0 9.125-7.425782 16.550782-16.550782 16.550782h-272.546875c-9.125 0-16.546875-7.425782-16.546875-16.550782v-32.0625c0-9.125 7.421875-16.550781 16.546875-16.550781h24.054688c4.140625 0 7.5-3.355469 7.5-7.5 0-4.140625-3.359375-7.5-7.5-7.5h-8.539063v-44.082031c0-17.449219 1.015625-35.09375 3.015625-52.433594l14.222657-123.25c1.429687-12.398438 11.921874-21.75 24.402343-21.75h158.238281c12.480469 0 22.96875 9.351562 24.402344 21.75l1.347656 11.691406c.476563 4.113282 4.183594 7.0625 8.3125 6.59375 4.113282-.476562 7.0625-4.199218 6.589844-8.3125l-1.351562-11.691406c-2.300782-19.96875-19.199219-35.03125-39.300782-35.03125h-158.238281c-20.105469 0-37 15.0625-39.304687 35.03125l-14.222656 123.25c-2.066407 17.910156-3.113282 36.128906-3.113282 54.152344v44.085937h-.515625c-6.066406 0-11.734375 1.722657-16.546875 4.703125v-61.332031c0-6.914063-3.023437-13.449219-8.292968-17.933594-2.101563-1.785156-4.472657-3.15625-7-4.097656zm1.261719 431.863281h-2.027344l6.824218-81.851562c2.964844.425781 5.992188.65625 9.074219.65625h6.425781zm35.757812-81.191406h106.886719v17.0625h-111.152344zm121.886719 17.0625v-17.0625h106.886719l4.265624 17.0625zm144.671875 64.128906h-2.023438l-20.300781-81.191406h6.429687c3.082032 0 6.109376-.234375 9.074219-.660156zm32.714844-144.804688c0 26.804688-21.808594 48.613282-48.613282 48.613282h-272.546875c-26.804687 0-48.613281-21.808594-48.613281-48.613282v-119.382812c0-4.554688 3.09375-8.628906 7.042969-9.273438 2.582031-.417968 5.074219.257813 7.011719 1.90625 1.914062 1.628907 3.011718 4 3.011718 6.503907v120.242187c0 17.398438 14.152344 31.550782 31.546875 31.550782h272.550781c17.394532 0 31.546876-14.152344 31.546876-31.550782v-119.378906c0-4.554688 3.09375-8.628906 7.042968-9.273438 2.585938-.417968 5.070313.257813 7.007813 1.90625 1.914062 1.628907 3.011719 4 3.011719 6.503907zm0 0"/><path d="m159.804688 136.273438h-.515626v-.515626c0-4.140624-3.355468-7.5-7.5-7.5-4.140624 0-7.5 3.359376-7.5 7.5v.515626h-.515624c-4.140626 0-7.5 3.359374-7.5 7.5 0 4.140624 3.359374 7.5 7.5 7.5h.515624v.515624c0 4.144532 3.359376 7.5 7.5 7.5 4.144532 0 7.5-3.355468 7.5-7.5v-.515624h.515626c4.144531 0 7.5-3.359376 7.5-7.5 0-4.140626-3.355469-7.5-7.5-7.5zm0 0"/><path d="m256 136.273438h-.515625v-.515626c0-4.140624-3.359375-7.5-7.5-7.5s-7.5 3.359376-7.5 7.5v.515626h-.515625c-4.140625 0-7.5 3.359374-7.5 7.5 0 4.140624 3.359375 7.5 7.5 7.5h.515625v.515624c0 4.144532 3.359375 7.5 7.5 7.5s7.5-3.355468 7.5-7.5v-.515624h.515625c4.140625 0 7.5-3.359376 7.5-7.5 0-4.140626-3.359375-7.5-7.5-7.5zm0 0"/></svg>