<?xml version="1.0" encoding="utf-8"?>
<!-- Generator: Adobe Illustrator 22.1.0, SVG Export Plug-In . SVG Version: 6.00 Build 0)  -->
<svg version="1.1" id="Layer_1" xmlns="http://www.w3.org/2000/svg" xmlns:xlink="http://www.w3.org/1999/xlink" x="0px" y="0px"
	 viewBox="0 0 512 512" style="enable-background:new 0 0 512 512;" xml:space="preserve">
<style type="text/css">
	.st0{fill:#00B400;}
</style>
<path class="st0" d="M447.5,214c-2.5-2.1-5.4-3.7-8.4-4.6l-16.8-146C418,27.3,387.4,0,351,0H160.7c-36.4,0-67,27.3-71.2,63.4
	l-16.8,146C63,212.4,56,222,56,232.8v119.4c0,26.7,16.5,49.5,39.8,59l-7.7,92.7c-0.2,2.1,0.5,4.2,2,5.7c1.4,1.5,3.4,2.4,5.5,2.4h16
	c3.4,0,6.4-2.3,7.3-5.7l14.6-58.4h244.8l14.6,58.4c0.8,3.3,3.8,5.7,7.3,5.7h16c2.1,0,4.1-0.9,5.5-2.4c1.4-1.5,2.1-3.6,2-5.7
	l-7.7-92.7c23.3-9.4,39.8-32.3,39.8-59V232C455.8,225,452.8,218.5,447.5,214z M104.5,65.1C107.8,36.6,132,15,160.7,15H351
	c28.8,0,53,21.6,56.3,50.1L424,209.9c-9,3.5-15.3,12.6-15.3,22.9v60.5c-4.8-3-10.5-4.7-16.5-4.7h-0.5v-44.1c0-18-1.1-36.2-3.1-54.2
	l-9.2-79.5c-0.5-4.1-4.2-7.1-8.3-6.6c-4.1,0.5-7.1,4.2-6.6,8.3l9.2,79.5c2,17.3,3,35,3,52.4v44.1H175.7c-4.1,0-7.5,3.4-7.5,7.5
	c0,4.1,3.4,7.5,7.5,7.5h216.4c9.1,0,16.6,7.4,16.6,16.6v32.1c0,9.1-7.4,16.6-16.6,16.6H119.6c-9.1,0-16.5-7.4-16.5-16.6v-32.1
	c0-9.1,7.4-16.6,16.5-16.6h24.1c4.1,0,7.5-3.4,7.5-7.5c0-4.1-3.4-7.5-7.5-7.5h-8.5v-44.1c0-17.4,1-35.1,3-52.4l14.2-123.2
	c1.4-12.4,11.9-21.8,24.4-21.8H335c12.5,0,23,9.4,24.4,21.8l1.3,11.7c0.5,4.1,4.2,7.1,8.3,6.6c4.1-0.5,7.1-4.2,6.6-8.3l-1.4-11.7
	c-2.3-20-19.2-35-39.3-35H176.8c-20.1,0-37,15.1-39.3,35l-14.2,123.2c-2.1,17.9-3.1,36.1-3.1,54.2v44.1h-0.5
	c-6.1,0-11.7,1.7-16.5,4.7V232c0-6.9-3-13.4-8.3-17.9c-2.1-1.8-4.5-3.2-7-4.1L104.5,65.1z M105.7,497h-2l6.8-81.9
	c3,0.4,6,0.7,9.1,0.7h6.4L105.7,497z M141.5,415.8h106.9v17.1H137.2L141.5,415.8z M263.4,432.9v-17.1h106.9l4.3,17.1H263.4z
	 M408.1,497h-2l-20.3-81.2h6.4c3.1,0,6.1-0.2,9.1-0.7L408.1,497z M440.8,352.2c0,26.8-21.8,48.6-48.6,48.6H119.6
	C92.8,400.8,71,379,71,352.2V232.8c0-4.6,3.1-8.6,7-9.3c2.6-0.4,5.1,0.3,7,1.9c1.9,1.6,3,4,3,6.5v120.2c0,17.4,14.2,31.6,31.5,31.6
	h272.6c17.4,0,31.5-14.2,31.5-31.6V232.8c0-4.6,3.1-8.6,7-9.3c2.6-0.4,5.1,0.3,7,1.9c1.9,1.6,3,4,3,6.5V352.2z"/>
<path class="st0" d="M215.8,136.3h-0.5v-0.5c0-4.1-3.4-7.5-7.5-7.5c-4.1,0-7.5,3.4-7.5,7.5v0.5h-0.5c-4.1,0-7.5,3.4-7.5,7.5
	s3.4,7.5,7.5,7.5h0.5v0.5c0,4.1,3.4,7.5,7.5,7.5c4.1,0,7.5-3.4,7.5-7.5v-0.5h0.5c4.1,0,7.5-3.4,7.5-7.5S219.9,136.3,215.8,136.3z"/>
<path class="st0" d="M312,136.3h-0.5v-0.5c0-4.1-3.4-7.5-7.5-7.5s-7.5,3.4-7.5,7.5v0.5H296c-4.1,0-7.5,3.4-7.5,7.5s3.4,7.5,7.5,7.5
	h0.5v0.5c0,4.1,3.4,7.5,7.5,7.5s7.5-3.4,7.5-7.5v-0.5h0.5c4.1,0,7.5-3.4,7.5-7.5S316.1,136.3,312,136.3z"/>
</svg>
