<?xml version="1.0" encoding="utf-8"?>
<!-- Generator: Adobe Illustrator 22.1.0, SVG Export Plug-In . SVG Version: 6.00 Build 0)  -->
<svg version="1.1" id="Layer_1" xmlns="http://www.w3.org/2000/svg" xmlns:xlink="http://www.w3.org/1999/xlink" x="0px" y="0px"
	 viewBox="0 0 512 512" style="enable-background:new 0 0 512 512;" xml:space="preserve">
<style type="text/css">
	.st0{fill:#00B400;}
</style>
<path class="st0" d="M311,222c-48.5,0-88,39.5-88,88s39.5,88,88,88s88-39.5,88-88S359.5,222,311,222z M311,378
	c-37.5,0-68-30.5-68-68s30.5-68,68-68s68,30.5,68,68S348.5,378,311,378z"/>
<path class="st0" d="M503.1,454.1l-79.4-79.4c11-19.1,17.3-41.2,17.3-64.7c0-34.8-13.7-66.4-36-89.7V108c0,0,0,0,0,0
	c0-2.6-1-5.2-2.9-7.1l-98-98C302.1,1,299.6,0,297,0c0,0,0,0,0,0H31C14.5,0,1,13.5,1,30v452c0,16.5,13.5,30,30,30h344
	c16.5,0,30-13.5,30-30v-30.1l50.1,50.1c6.6,6.6,15.3,9.9,24,9.9c8.7,0,17.4-3.3,24-9.9C516.3,488.8,516.3,467.3,503.1,454.1z
	 M311,420c-60.7,0-110-49.3-110-110s49.3-110,110-110s110,49.3,110,110S371.7,420,311,420z M307,34.1L370.8,98H317
	c-5.5,0-10-4.5-10-10V34.1z M385,482c0,5.5-4.5,10-10,10H31c-5.5,0-10-4.5-10-10V30c0-5.5,4.5-10,10-10h256v68c0,16.5,13.5,30,30,30
	h68v85.2c-21-14.6-46.5-23.2-74-23.2c-71.7,0-130,58.3-130,130c0,14,2.2,27.5,6.3,40.1H65.2c-5.5,0-10,4.5-10,10c0,5.5,4.5,10,10,10
	h127.7c0.9,0,1.9-0.1,2.7-0.4C217.2,411.4,260.8,440,311,440c23.6,0,45.7-6.3,64.7-17.3l9.2,9.2V482z M488.9,487.9
	c-5.4,5.4-14.2,5.4-19.7,0l-76.7-76.7c7.2-5.8,13.8-12.4,19.7-19.7l76.7,76.7C494.4,473.7,494.4,482.5,488.9,487.9z"/>
<path class="st0" d="M311,265c-5.5,0-10,4.5-10,10s4.5,10,10,10c13.8,0,25,11.2,25,25c0,5.5,4.5,10,10,10s10-4.5,10-10
	C356,285.2,335.8,265,311,265z"/>
<path class="st0" d="M155.1,280.8h-90c-5.5,0-10,4.5-10,10s4.5,10,10,10h90c5.5,0,10-4.5,10-10S160.7,280.8,155.1,280.8z"/>
<path class="st0" d="M161.1,211.5H65.2c-5.5,0-10,4.5-10,10c0,5.5,4.5,10,10,10h95.9c5.5,0,10-4.5,10-10
	C171.1,215.9,166.6,211.5,161.1,211.5z"/>
<path class="st0" d="M191,419.5c-2.6,0-5.2,1.1-7.1,2.9c-1.9,1.9-2.9,4.4-2.9,7.1c0,2.6,1.1,5.2,2.9,7.1c1.9,1.9,4.4,2.9,7.1,2.9
	c2.6,0,5.2-1.1,7.1-2.9c1.9-1.9,2.9-4.4,2.9-7.1c0-2.6-1.1-5.2-2.9-7.1C196.2,420.5,193.6,419.5,191,419.5z"/>
<path class="st0" d="M149.9,419.5H65.2c-5.5,0-10,4.5-10,10c0,5.5,4.5,10,10,10h84.8c5.5,0,10-4.5,10-10
	C159.9,423.9,155.5,419.5,149.9,419.5z"/>
<path class="st0" d="M65.1,162.1c2.6,0,5.2-1.1,7.1-2.9c1.9-1.9,2.9-4.4,2.9-7.1c0-2.6-1.1-5.2-2.9-7.1c-1.9-1.9-4.4-2.9-7.1-2.9
	s-5.2,1.1-7.1,2.9c-1.9,1.9-2.9,4.4-2.9,7.1c0,2.6,1.1,5.2,2.9,7.1C59.9,161.1,62.5,162.1,65.1,162.1z"/>
<path class="st0" d="M257,142.1H107.5c-5.5,0-10,4.5-10,10c0,5.5,4.5,10,10,10H257c5.5,0,10-4.5,10-10
	C267,146.6,262.5,142.1,257,142.1z"/>
<path class="st0" d="M65.2,92.8H257c5.5,0,10-4.5,10-10s-4.5-10-10-10H65.2c-5.5,0-10,4.5-10,10S59.6,92.8,65.2,92.8z"/>
</svg>
